<?xml version="1.0" encoding="UTF-8" standalone="no"?>
<!DOCTYPE svg PUBLIC "-//W3C//DTD SVG 1.1//EN"
 "http://www.w3.org/Graphics/SVG/1.1/DTD/svg11.dtd">
<!-- Generated by graphviz version 2.40.1 (20161225.0304)
 -->
<!-- Title: dependencies Pages: 1 -->
<svg width="2026pt" height="284pt"
 viewBox="0.00 0.00 2026.00 284.00" xmlns="http://www.w3.org/2000/svg" xmlns:xlink="http://www.w3.org/1999/xlink">
<g id="graph0" class="graph" transform="scale(1 1) rotate(0) translate(4 280)">
<title>dependencies</title>
<polygon fill="#ffffff" stroke="transparent" points="-4,4 -4,-280 2022,-280 2022,4 -4,4"/>
<text text-anchor="start" x="988.0091" y="-42.4" font-family="sans-serif" font-weight="bold" font-size="14.00" fill="#000000">Legend</text>
<polygon fill="#ffffb3" stroke="transparent" points="775,-10 775,-30 795,-30 795,-10 775,-10"/>
<text text-anchor="start" x="798.629" y="-15.4" font-family="sans-serif" font-size="14.00" fill="#000000"> &#160;Declarations</text>
<polygon fill="#8dd3c7" stroke="transparent" points="888,-10 888,-30 908,-30 908,-10 888,-10"/>
<text text-anchor="start" x="911.7251" y="-15.4" font-family="sans-serif" font-size="14.00" fill="#000000"> &#160;Module</text>
<polygon fill="#80b1d3" stroke="transparent" points="974,-10 974,-30 994,-30 994,-10 974,-10"/>
<text text-anchor="start" x="997.7812" y="-15.4" font-family="sans-serif" font-size="14.00" fill="#000000"> &#160;Bootstrap</text>
<polygon fill="#fdb462" stroke="transparent" points="1071,-10 1071,-30 1091,-30 1091,-10 1071,-10"/>
<text text-anchor="start" x="1094.6732" y="-15.4" font-family="sans-serif" font-size="14.00" fill="#000000"> &#160;Providers</text>
<polygon fill="#fb8072" stroke="transparent" points="1167,-10 1167,-30 1187,-30 1187,-10 1167,-10"/>
<text text-anchor="start" x="1190.7258" y="-15.4" font-family="sans-serif" font-size="14.00" fill="#000000"> &#160;Exports</text>
<g id="clust1" class="cluster">
<title>cluster_EventsModule</title>
<polygon fill="none" stroke="#000000" stroke-dasharray="1,5" points="8,-70 8,-268 2010,-268 2010,-70 8,-70"/>
</g>
<g id="clust2" class="cluster">
<title>cluster_EventsModule_declarations</title>
<polygon fill="none" stroke="#000000" points="299,-78 299,-130 2002,-130 2002,-78 299,-78"/>
</g>
<g id="clust13" class="cluster">
<title>cluster_EventsModule_imports</title>
<polygon fill="none" stroke="#000000" points="16,-78 16,-130 291,-130 291,-78 16,-78"/>
</g>
<g id="clust14" class="cluster">
<title>cluster_EventsModule_exports</title>
<polygon fill="none" stroke="#000000" points="841,-208 841,-260 1187,-260 1187,-208 841,-208"/>
</g>
<!-- EventChatComponent -->
<g id="node1" class="node">
<title>EventChatComponent</title>
<polygon fill="#ffffb3" stroke="#000000" points="1994.4327,-122 1853.5673,-122 1853.5673,-86 1994.4327,-86 1994.4327,-122"/>
<text text-anchor="middle" x="1924" y="-99.8" font-family="Times,serif" font-size="14.00" fill="#000000">EventChatComponent</text>
</g>
<!-- EventsModule -->
<g id="node11" class="node">
<title>EventsModule</title>
<polygon fill="#8dd3c7" stroke="#000000" points="1070.6528,-187 1067.6528,-191 1046.6528,-191 1043.6528,-187 973.3472,-187 973.3472,-151 1070.6528,-151 1070.6528,-187"/>
<text text-anchor="middle" x="1022" y="-164.8" font-family="Times,serif" font-size="14.00" fill="#000000">EventsModule</text>
</g>
<!-- EventChatComponent&#45;&gt;EventsModule -->
<g id="edge1" class="edge">
<title>EventChatComponent&#45;&gt;EventsModule</title>
<path fill="none" stroke="#000000" d="M1924,-122.2479C1924,-145.0179 1924,-181 1924,-181 1924,-181 1080.8153,-181 1080.8153,-181"/>
<polygon fill="#000000" stroke="#000000" points="1080.8153,-177.5001 1070.8153,-181 1080.8152,-184.5001 1080.8153,-177.5001"/>
</g>
<!-- EventDetailsComponent -->
<g id="node2" class="node">
<title>EventDetailsComponent</title>
<polygon fill="#ffffb3" stroke="#000000" points="1835.6428,-122 1682.3572,-122 1682.3572,-86 1835.6428,-86 1835.6428,-122"/>
<text text-anchor="middle" x="1759" y="-99.8" font-family="Times,serif" font-size="14.00" fill="#000000">EventDetailsComponent</text>
</g>
<!-- EventDetailsComponent&#45;&gt;EventsModule -->
<g id="edge2" class="edge">
<title>EventDetailsComponent&#45;&gt;EventsModule</title>
<path fill="none" stroke="#000000" d="M1759,-122.2843C1759,-143.3211 1759,-175 1759,-175 1759,-175 1080.9274,-175 1080.9274,-175"/>
<polygon fill="#000000" stroke="#000000" points="1080.9274,-171.5001 1070.9274,-175 1080.9274,-178.5001 1080.9274,-171.5001"/>
</g>
<!-- EventInfoComponent -->
<g id="node3" class="node">
<title>EventInfoComponent</title>
<polygon fill="#ffffb3" stroke="#000000" points="1664.8118,-122 1527.1882,-122 1527.1882,-86 1664.8118,-86 1664.8118,-122"/>
<text text-anchor="middle" x="1596" y="-99.8" font-family="Times,serif" font-size="14.00" fill="#000000">EventInfoComponent</text>
</g>
<!-- EventInfoComponent&#45;&gt;EventsModule -->
<g id="edge3" class="edge">
<title>EventInfoComponent&#45;&gt;EventsModule</title>
<path fill="none" stroke="#000000" d="M1596,-122.1061C1596,-141.3391 1596,-169 1596,-169 1596,-169 1080.9389,-169 1080.9389,-169"/>
<polygon fill="#000000" stroke="#000000" points="1080.939,-165.5001 1070.9389,-169 1080.9389,-172.5001 1080.939,-165.5001"/>
</g>
<!-- EventListComponent -->
<g id="node4" class="node">
<title>EventListComponent</title>
<polygon fill="#ffffb3" stroke="#000000" points="1508.7688,-122 1373.2312,-122 1373.2312,-86 1508.7688,-86 1508.7688,-122"/>
<text text-anchor="middle" x="1441" y="-99.8" font-family="Times,serif" font-size="14.00" fill="#000000">EventListComponent</text>
</g>
<!-- EventListComponent&#45;&gt;EventsModule -->
<g id="edge4" class="edge">
<title>EventListComponent&#45;&gt;EventsModule</title>
<path fill="none" stroke="#000000" d="M1441,-122.0225C1441,-139.3734 1441,-163 1441,-163 1441,-163 1080.8847,-163 1080.8847,-163"/>
<polygon fill="#000000" stroke="#000000" points="1080.8847,-159.5001 1070.8847,-163 1080.8846,-166.5001 1080.8847,-159.5001"/>
</g>
<!-- EventListItemComponent -->
<g id="node5" class="node">
<title>EventListItemComponent</title>
<polygon fill="#ffffb3" stroke="#000000" points="1354.9256,-122 1193.0744,-122 1193.0744,-86 1354.9256,-86 1354.9256,-122"/>
<text text-anchor="middle" x="1274" y="-99.8" font-family="Times,serif" font-size="14.00" fill="#000000">EventListItemComponent</text>
</g>
<!-- EventListItemComponent&#45;&gt;EventsModule -->
<g id="edge5" class="edge">
<title>EventListItemComponent&#45;&gt;EventsModule</title>
<path fill="none" stroke="#000000" d="M1274,-122.2396C1274,-137.5706 1274,-157 1274,-157 1274,-157 1080.8869,-157 1080.8869,-157"/>
<polygon fill="#000000" stroke="#000000" points="1080.887,-153.5001 1070.8869,-157 1080.8869,-160.5001 1080.887,-153.5001"/>
</g>
<!-- EventMapComponent -->
<g id="node6" class="node">
<title>EventMapComponent</title>
<polygon fill="#ffffb3" stroke="#000000" points="1174.6498,-122 1035.3502,-122 1035.3502,-86 1174.6498,-86 1174.6498,-122"/>
<text text-anchor="middle" x="1105" y="-99.8" font-family="Times,serif" font-size="14.00" fill="#000000">EventMapComponent</text>
</g>
<!-- EventMapComponent&#45;&gt;EventsModule -->
<g id="edge6" class="edge">
<title>EventMapComponent&#45;&gt;EventsModule</title>
<path fill="none" stroke="#000000" d="M1053.0007,-122.1061C1053.0007,-122.1061 1053.0007,-140.991 1053.0007,-140.991"/>
<polygon fill="#000000" stroke="#000000" points="1049.5008,-140.9909 1053.0007,-150.991 1056.5008,-140.991 1049.5008,-140.9909"/>
</g>
<!-- EventPlayersComponent -->
<g id="node7" class="node">
<title>EventPlayersComponent</title>
<polygon fill="#ffffb3" stroke="#000000" points="1017.6979,-122 862.3021,-122 862.3021,-86 1017.6979,-86 1017.6979,-122"/>
<text text-anchor="middle" x="940" y="-99.8" font-family="Times,serif" font-size="14.00" fill="#000000">EventPlayersComponent</text>
</g>
<!-- EventPlayersComponent&#45;&gt;EventsModule -->
<g id="edge7" class="edge">
<title>EventPlayersComponent&#45;&gt;EventsModule</title>
<path fill="none" stroke="#000000" d="M995.3864,-122.1061C995.3864,-122.1061 995.3864,-140.991 995.3864,-140.991"/>
<polygon fill="#000000" stroke="#000000" points="991.8865,-140.9909 995.3864,-150.991 998.8865,-140.991 991.8865,-140.9909"/>
</g>
<!-- EventSearchResultsComponent -->
<g id="node8" class="node">
<title>EventSearchResultsComponent</title>
<polygon fill="#ffffb3" stroke="#000000" points="844.799,-122 651.201,-122 651.201,-86 844.799,-86 844.799,-122"/>
<text text-anchor="middle" x="748" y="-99.8" font-family="Times,serif" font-size="14.00" fill="#000000">EventSearchResultsComponent</text>
</g>
<!-- EventSearchResultsComponent&#45;&gt;EventsModule -->
<g id="edge8" class="edge">
<title>EventSearchResultsComponent&#45;&gt;EventsModule</title>
<path fill="none" stroke="#000000" d="M748,-122.2396C748,-137.5706 748,-157 748,-157 748,-157 963.33,-157 963.33,-157"/>
<polygon fill="#000000" stroke="#000000" points="963.3301,-160.5001 973.33,-157 963.33,-153.5001 963.3301,-160.5001"/>
</g>
<!-- EventsSearcherComponent -->
<g id="node9" class="node">
<title>EventsSearcherComponent</title>
<polygon fill="#ffffb3" stroke="#000000" points="633.3975,-122 464.6025,-122 464.6025,-86 633.3975,-86 633.3975,-122"/>
<text text-anchor="middle" x="549" y="-99.8" font-family="Times,serif" font-size="14.00" fill="#000000">EventsSearcherComponent</text>
</g>
<!-- EventsSearcherComponent&#45;&gt;EventsModule -->
<g id="edge9" class="edge">
<title>EventsSearcherComponent&#45;&gt;EventsModule</title>
<path fill="none" stroke="#000000" d="M549,-122.0225C549,-139.3734 549,-163 549,-163 549,-163 963.1622,-163 963.1622,-163"/>
<polygon fill="#000000" stroke="#000000" points="963.1623,-166.5001 973.1622,-163 963.1622,-159.5001 963.1623,-166.5001"/>
</g>
<!-- NewEventComponent -->
<g id="node10" class="node">
<title>NewEventComponent</title>
<polygon fill="#ffffb3" stroke="#000000" points="447.4186,-122 306.5814,-122 306.5814,-86 447.4186,-86 447.4186,-122"/>
<text text-anchor="middle" x="377" y="-99.8" font-family="Times,serif" font-size="14.00" fill="#000000">NewEventComponent</text>
</g>
<!-- NewEventComponent&#45;&gt;EventsModule -->
<g id="edge10" class="edge">
<title>NewEventComponent&#45;&gt;EventsModule</title>
<path fill="none" stroke="#000000" d="M377,-122.1061C377,-141.3391 377,-169 377,-169 377,-169 963.2558,-169 963.2558,-169"/>
<polygon fill="#000000" stroke="#000000" points="963.2558,-172.5001 973.2558,-169 963.2557,-165.5001 963.2558,-172.5001"/>
</g>
<!-- EventListComponent  -->
<g id="node14" class="node">
<title>EventListComponent </title>
<polygon fill="#fb8072" stroke="#000000" points="1178.7689,-252 1039.2311,-252 1039.2311,-216 1178.7689,-216 1178.7689,-252"/>
<text text-anchor="middle" x="1109" y="-229.8" font-family="Times,serif" font-size="14.00" fill="#000000">EventListComponent </text>
</g>
<!-- EventsModule&#45;&gt;EventListComponent  -->
<g id="edge13" class="edge">
<title>EventsModule&#45;&gt;EventListComponent </title>
<path fill="none" stroke="#000000" stroke-dasharray="5,2" d="M1055.0959,-187.1061C1055.0959,-187.1061 1055.0959,-205.991 1055.0959,-205.991"/>
<polygon fill="#000000" stroke="#000000" points="1051.596,-205.9909 1055.0959,-215.991 1058.596,-205.991 1051.596,-205.9909"/>
</g>
<!-- EventsSearcherComponent  -->
<g id="node15" class="node">
<title>EventsSearcherComponent </title>
<polygon fill="#fb8072" stroke="#000000" points="1020.897,-252 849.103,-252 849.103,-216 1020.897,-216 1020.897,-252"/>
<text text-anchor="middle" x="935" y="-229.8" font-family="Times,serif" font-size="14.00" fill="#000000">EventsSearcherComponent </text>
</g>
<!-- EventsModule&#45;&gt;EventsSearcherComponent  -->
<g id="edge14" class="edge">
<title>EventsModule&#45;&gt;EventsSearcherComponent </title>
<path fill="none" stroke="#000000" stroke-dasharray="5,2" d="M997.0612,-187.1061C997.0612,-187.1061 997.0612,-205.991 997.0612,-205.991"/>
<polygon fill="#000000" stroke="#000000" points="993.5613,-205.9909 997.0612,-215.991 1000.5613,-205.991 993.5613,-205.9909"/>
</g>
<!-- EventsRoutingModule -->
<g id="node12" class="node">
<title>EventsRoutingModule</title>
<polygon fill="#8dd3c7" stroke="#000000" points="283.2702,-122 280.2702,-126 259.2702,-126 256.2702,-122 140.7298,-122 140.7298,-86 283.2702,-86 283.2702,-122"/>
<text text-anchor="middle" x="212" y="-99.8" font-family="Times,serif" font-size="14.00" fill="#000000">EventsRoutingModule</text>
</g>
<!-- EventsRoutingModule&#45;&gt;EventsModule -->
<g id="edge11" class="edge">
<title>EventsRoutingModule&#45;&gt;EventsModule</title>
<path fill="none" stroke="#000000" d="M212,-122.2843C212,-143.3211 212,-175 212,-175 212,-175 963.155,-175 963.155,-175"/>
<polygon fill="#000000" stroke="#000000" points="963.155,-178.5001 973.155,-175 963.155,-171.5001 963.155,-178.5001"/>
</g>
<!-- SharedModule -->
<g id="node13" class="node">
<title>SharedModule</title>
<polygon fill="#8dd3c7" stroke="#000000" points="122.4231,-122 119.4231,-126 98.4231,-126 95.4231,-122 23.5769,-122 23.5769,-86 122.4231,-86 122.4231,-122"/>
<text text-anchor="middle" x="73" y="-99.8" font-family="Times,serif" font-size="14.00" fill="#000000">SharedModule</text>
</g>
<!-- SharedModule&#45;&gt;EventsModule -->
<g id="edge12" class="edge">
<title>SharedModule&#45;&gt;EventsModule</title>
<path fill="none" stroke="#000000" d="M73,-122.2479C73,-145.0179 73,-181 73,-181 73,-181 963.3056,-181 963.3056,-181"/>
<polygon fill="#000000" stroke="#000000" points="963.3057,-184.5001 973.3056,-181 963.3056,-177.5001 963.3057,-184.5001"/>
</g>
</g>
</svg>
