<?xml version="1.0" encoding="UTF-8" standalone="no"?>
<!DOCTYPE svg PUBLIC "-//W3C//DTD SVG 1.1//EN"
 "http://www.w3.org/Graphics/SVG/1.1/DTD/svg11.dtd">
<!-- Generated by graphviz version 2.40.1 (20161225.0304)
 -->
<!-- Title: dependencies Pages: 1 -->
<svg width="2096pt" height="284pt"
 viewBox="0.00 0.00 2096.00 284.00" xmlns="http://www.w3.org/2000/svg" xmlns:xlink="http://www.w3.org/1999/xlink">
<g id="graph0" class="graph" transform="scale(1 1) rotate(0) translate(4 280)">
<title>dependencies</title>
<polygon fill="#ffffff" stroke="transparent" points="-4,4 -4,-280 2092,-280 2092,4 -4,4"/>
<text text-anchor="start" x="1023.0091" y="-42.4" font-family="sans-serif" font-weight="bold" font-size="14.00" fill="#000000">Legend</text>
<polygon fill="#ffffb3" stroke="transparent" points="810,-10 810,-30 830,-30 830,-10 810,-10"/>
<text text-anchor="start" x="833.629" y="-15.4" font-family="sans-serif" font-size="14.00" fill="#000000"> &#160;Declarations</text>
<polygon fill="#8dd3c7" stroke="transparent" points="923,-10 923,-30 943,-30 943,-10 923,-10"/>
<text text-anchor="start" x="946.7251" y="-15.4" font-family="sans-serif" font-size="14.00" fill="#000000"> &#160;Module</text>
<polygon fill="#80b1d3" stroke="transparent" points="1009,-10 1009,-30 1029,-30 1029,-10 1009,-10"/>
<text text-anchor="start" x="1032.7812" y="-15.4" font-family="sans-serif" font-size="14.00" fill="#000000"> &#160;Bootstrap</text>
<polygon fill="#fdb462" stroke="transparent" points="1106,-10 1106,-30 1126,-30 1126,-10 1106,-10"/>
<text text-anchor="start" x="1129.6732" y="-15.4" font-family="sans-serif" font-size="14.00" fill="#000000"> &#160;Providers</text>
<polygon fill="#fb8072" stroke="transparent" points="1202,-10 1202,-30 1222,-30 1222,-10 1202,-10"/>
<text text-anchor="start" x="1225.7258" y="-15.4" font-family="sans-serif" font-size="14.00" fill="#000000"> &#160;Exports</text>
<g id="clust1" class="cluster">
<title>cluster_SharedModule</title>
<polygon fill="none" stroke="#000000" stroke-dasharray="1,5" points="8,-70 8,-268 2080,-268 2080,-70 8,-70"/>
</g>
<g id="clust2" class="cluster">
<title>cluster_SharedModule_declarations</title>
<polygon fill="none" stroke="#000000" points="36,-78 36,-130 2050,-130 2050,-78 36,-78"/>
</g>
<g id="clust17" class="cluster">
<title>cluster_SharedModule_exports</title>
<polygon fill="none" stroke="#000000" points="16,-208 16,-260 2072,-260 2072,-208 16,-208"/>
</g>
<!-- CardComponent -->
<g id="node1" class="node">
<title>CardComponent</title>
<polygon fill="#ffffb3" stroke="#000000" points="2042.0452,-122 1933.9548,-122 1933.9548,-86 2042.0452,-86 2042.0452,-122"/>
<text text-anchor="middle" x="1988" y="-99.8" font-family="Times,serif" font-size="14.00" fill="#000000">CardComponent</text>
</g>
<!-- SharedModule -->
<g id="node14" class="node">
<title>SharedModule</title>
<polygon fill="#8dd3c7" stroke="#000000" points="1113.4231,-187 1110.4231,-191 1089.4231,-191 1086.4231,-187 1014.5769,-187 1014.5769,-151 1113.4231,-151 1113.4231,-187"/>
<text text-anchor="middle" x="1064" y="-164.8" font-family="Times,serif" font-size="14.00" fill="#000000">SharedModule</text>
</g>
<!-- CardComponent&#45;&gt;SharedModule -->
<g id="edge1" class="edge">
<title>CardComponent&#45;&gt;SharedModule</title>
<path fill="none" stroke="#000000" d="M1943.0488,-122.1686C1943.0488,-141.0898 1943.0488,-168 1943.0488,-168 1943.0488,-168 1123.4622,-168 1123.4622,-168"/>
<polygon fill="#000000" stroke="#000000" points="1123.4622,-164.5001 1113.4622,-168 1123.4621,-171.5001 1123.4622,-164.5001"/>
</g>
<!-- DatepickerComponent -->
<g id="node2" class="node">
<title>DatepickerComponent</title>
<polygon fill="#ffffb3" stroke="#000000" points="1915.2394,-122 1772.7606,-122 1772.7606,-86 1915.2394,-86 1915.2394,-122"/>
<text text-anchor="middle" x="1844" y="-99.8" font-family="Times,serif" font-size="14.00" fill="#000000">DatepickerComponent</text>
</g>
<!-- DatepickerComponent&#45;&gt;SharedModule -->
<g id="edge2" class="edge">
<title>DatepickerComponent&#45;&gt;SharedModule</title>
<path fill="none" stroke="#000000" d="M1780.2554,-122.302C1780.2554,-140.2699 1780.2554,-165 1780.2554,-165 1780.2554,-165 1123.2311,-165 1123.2311,-165"/>
<polygon fill="#000000" stroke="#000000" points="1123.2312,-161.5001 1113.2311,-165 1123.2311,-168.5001 1123.2312,-161.5001"/>
</g>
<!-- DropdownComponent -->
<g id="node3" class="node">
<title>DropdownComponent</title>
<polygon fill="#ffffb3" stroke="#000000" points="1754.7064,-122 1613.2936,-122 1613.2936,-86 1754.7064,-86 1754.7064,-122"/>
<text text-anchor="middle" x="1684" y="-99.8" font-family="Times,serif" font-size="14.00" fill="#000000">DropdownComponent</text>
</g>
<!-- DropdownComponent&#45;&gt;SharedModule -->
<g id="edge3" class="edge">
<title>DropdownComponent&#45;&gt;SharedModule</title>
<path fill="none" stroke="#000000" d="M1619.5219,-122.0225C1619.5219,-139.3734 1619.5219,-163 1619.5219,-163 1619.5219,-163 1123.2989,-163 1123.2989,-163"/>
<polygon fill="#000000" stroke="#000000" points="1123.2989,-159.5001 1113.2989,-163 1123.2988,-166.5001 1123.2989,-159.5001"/>
</g>
<!-- EventIntensityPipe -->
<g id="node4" class="node">
<title>EventIntensityPipe</title>
<polygon fill="#ffffb3" stroke="#000000" points="1595.0381,-122 1472.9619,-122 1472.9619,-86 1595.0381,-86 1595.0381,-122"/>
<text text-anchor="middle" x="1534" y="-99.8" font-family="Times,serif" font-size="14.00" fill="#000000">EventIntensityPipe</text>
</g>
<!-- EventIntensityPipe&#45;&gt;SharedModule -->
<g id="edge4" class="edge">
<title>EventIntensityPipe&#45;&gt;SharedModule</title>
<path fill="none" stroke="#000000" d="M1477.3564,-122.027C1477.3564,-138.3976 1477.3564,-160 1477.3564,-160 1477.3564,-160 1123.4499,-160 1123.4499,-160"/>
<polygon fill="#000000" stroke="#000000" points="1123.4499,-156.5001 1113.4499,-160 1123.4498,-163.5001 1123.4499,-156.5001"/>
</g>
<!-- EventStatusPipe -->
<g id="node5" class="node">
<title>EventStatusPipe</title>
<polygon fill="#ffffb3" stroke="#000000" points="1454.7688,-122 1347.2312,-122 1347.2312,-86 1454.7688,-86 1454.7688,-122"/>
<text text-anchor="middle" x="1401" y="-99.8" font-family="Times,serif" font-size="14.00" fill="#000000">EventStatusPipe</text>
</g>
<!-- EventStatusPipe&#45;&gt;SharedModule -->
<g id="edge5" class="edge">
<title>EventStatusPipe&#45;&gt;SharedModule</title>
<path fill="none" stroke="#000000" d="M1420.7114,-122.2396C1420.7114,-137.5706 1420.7114,-157 1420.7114,-157 1420.7114,-157 1123.2247,-157 1123.2247,-157"/>
<polygon fill="#000000" stroke="#000000" points="1123.2247,-153.5001 1113.2247,-157 1123.2246,-160.5001 1123.2247,-153.5001"/>
</g>
<!-- GoogleMapDirective -->
<g id="node6" class="node">
<title>GoogleMapDirective</title>
<polygon fill="#ffffb3" stroke="#000000" points="1329.4538,-122 1194.5462,-122 1194.5462,-86 1329.4538,-86 1329.4538,-122"/>
<text text-anchor="middle" x="1262" y="-99.8" font-family="Times,serif" font-size="14.00" fill="#000000">GoogleMapDirective</text>
</g>
<!-- GoogleMapDirective&#45;&gt;SharedModule -->
<g id="edge6" class="edge">
<title>GoogleMapDirective&#45;&gt;SharedModule</title>
<path fill="none" stroke="#000000" d="M1284.909,-122.0511C1284.909,-136.373 1284.909,-154 1284.909,-154 1284.909,-154 1123.3013,-154 1123.3013,-154"/>
<polygon fill="#000000" stroke="#000000" points="1123.3014,-150.5001 1113.3013,-154 1123.3013,-157.5001 1123.3014,-150.5001"/>
</g>
<!-- GooglePlacesAutocompleteDirective -->
<g id="node7" class="node">
<title>GooglePlacesAutocompleteDirective</title>
<polygon fill="#ffffb3" stroke="#000000" points="1176.3693,-122 951.6307,-122 951.6307,-86 1176.3693,-86 1176.3693,-122"/>
<text text-anchor="middle" x="1064" y="-99.8" font-family="Times,serif" font-size="14.00" fill="#000000">GooglePlacesAutocompleteDirective</text>
</g>
<!-- GooglePlacesAutocompleteDirective&#45;&gt;SharedModule -->
<g id="edge7" class="edge">
<title>GooglePlacesAutocompleteDirective&#45;&gt;SharedModule</title>
<path fill="none" stroke="#000000" d="M1064,-122.1061C1064,-122.1061 1064,-140.991 1064,-140.991"/>
<polygon fill="#000000" stroke="#000000" points="1060.5001,-140.9909 1064,-150.991 1067.5001,-140.991 1060.5001,-140.9909"/>
</g>
<!-- JumbotronComponent -->
<g id="node8" class="node">
<title>JumbotronComponent</title>
<polygon fill="#ffffb3" stroke="#000000" points="933.719,-122 792.281,-122 792.281,-86 933.719,-86 933.719,-122"/>
<text text-anchor="middle" x="863" y="-99.8" font-family="Times,serif" font-size="14.00" fill="#000000">JumbotronComponent</text>
</g>
<!-- JumbotronComponent&#45;&gt;SharedModule -->
<g id="edge8" class="edge">
<title>JumbotronComponent&#45;&gt;SharedModule</title>
<path fill="none" stroke="#000000" d="M885.7031,-122.0511C885.7031,-136.373 885.7031,-154 885.7031,-154 885.7031,-154 1004.3344,-154 1004.3344,-154"/>
<polygon fill="#000000" stroke="#000000" points="1004.3344,-157.5001 1014.3344,-154 1004.3343,-150.5001 1004.3344,-157.5001"/>
</g>
<!-- ModalComponent -->
<g id="node9" class="node">
<title>ModalComponent</title>
<polygon fill="#ffffb3" stroke="#000000" points="773.8823,-122 656.1177,-122 656.1177,-86 773.8823,-86 773.8823,-122"/>
<text text-anchor="middle" x="715" y="-99.8" font-family="Times,serif" font-size="14.00" fill="#000000">ModalComponent</text>
</g>
<!-- ModalComponent&#45;&gt;SharedModule -->
<g id="edge9" class="edge">
<title>ModalComponent&#45;&gt;SharedModule</title>
<path fill="none" stroke="#000000" d="M731.8137,-122.2396C731.8137,-137.5706 731.8137,-157 731.8137,-157 731.8137,-157 1004.627,-157 1004.627,-157"/>
<polygon fill="#000000" stroke="#000000" points="1004.6271,-160.5001 1014.627,-157 1004.627,-153.5001 1004.6271,-160.5001"/>
</g>
<!-- NotificationTypePipe -->
<g id="node10" class="node">
<title>NotificationTypePipe</title>
<polygon fill="#ffffb3" stroke="#000000" points="637.8047,-122 500.1953,-122 500.1953,-86 637.8047,-86 637.8047,-122"/>
<text text-anchor="middle" x="569" y="-99.8" font-family="Times,serif" font-size="14.00" fill="#000000">NotificationTypePipe</text>
</g>
<!-- NotificationTypePipe&#45;&gt;SharedModule -->
<g id="edge10" class="edge">
<title>NotificationTypePipe&#45;&gt;SharedModule</title>
<path fill="none" stroke="#000000" d="M634.0272,-122.027C634.0272,-138.3976 634.0272,-160 634.0272,-160 634.0272,-160 1004.6767,-160 1004.6767,-160"/>
<polygon fill="#000000" stroke="#000000" points="1004.6767,-163.5001 1014.6767,-160 1004.6766,-156.5001 1004.6767,-163.5001"/>
</g>
<!-- OutsideClickDirective -->
<g id="node11" class="node">
<title>OutsideClickDirective</title>
<polygon fill="#ffffb3" stroke="#000000" points="481.9622,-122 340.0378,-122 340.0378,-86 481.9622,-86 481.9622,-122"/>
<text text-anchor="middle" x="411" y="-99.8" font-family="Times,serif" font-size="14.00" fill="#000000">OutsideClickDirective</text>
</g>
<!-- OutsideClickDirective&#45;&gt;SharedModule -->
<g id="edge11" class="edge">
<title>OutsideClickDirective&#45;&gt;SharedModule</title>
<path fill="none" stroke="#000000" d="M476.8561,-122.0225C476.8561,-139.3734 476.8561,-163 476.8561,-163 476.8561,-163 1004.6987,-163 1004.6987,-163"/>
<polygon fill="#000000" stroke="#000000" points="1004.6987,-166.5001 1014.6987,-163 1004.6986,-159.5001 1004.6987,-166.5001"/>
</g>
<!-- PaddingZeroPipe -->
<g id="node12" class="node">
<title>PaddingZeroPipe</title>
<polygon fill="#ffffb3" stroke="#000000" points="321.7036,-122 208.2964,-122 208.2964,-86 321.7036,-86 321.7036,-122"/>
<text text-anchor="middle" x="265" y="-99.8" font-family="Times,serif" font-size="14.00" fill="#000000">PaddingZeroPipe</text>
</g>
<!-- PaddingZeroPipe&#45;&gt;SharedModule -->
<g id="edge12" class="edge">
<title>PaddingZeroPipe&#45;&gt;SharedModule</title>
<path fill="none" stroke="#000000" d="M314.9767,-122.302C314.9767,-140.2699 314.9767,-165 314.9767,-165 314.9767,-165 1004.5648,-165 1004.5648,-165"/>
<polygon fill="#000000" stroke="#000000" points="1004.5649,-168.5001 1014.5648,-165 1004.5648,-161.5001 1004.5649,-168.5001"/>
</g>
<!-- TimepickerComponent -->
<g id="node13" class="node">
<title>TimepickerComponent</title>
<polygon fill="#ffffb3" stroke="#000000" points="189.8613,-122 44.1387,-122 44.1387,-86 189.8613,-86 189.8613,-122"/>
<text text-anchor="middle" x="117" y="-99.8" font-family="Times,serif" font-size="14.00" fill="#000000">TimepickerComponent</text>
</g>
<!-- TimepickerComponent&#45;&gt;SharedModule -->
<g id="edge13" class="edge">
<title>TimepickerComponent&#45;&gt;SharedModule</title>
<path fill="none" stroke="#000000" d="M181.8056,-122.1686C181.8056,-141.0898 181.8056,-168 181.8056,-168 181.8056,-168 1004.6791,-168 1004.6791,-168"/>
<polygon fill="#000000" stroke="#000000" points="1004.6791,-171.5001 1014.6791,-168 1004.679,-164.5001 1004.6791,-171.5001"/>
</g>
<!-- CardComponent  -->
<g id="node15" class="node">
<title>CardComponent </title>
<polygon fill="#fb8072" stroke="#000000" points="2064.0442,-252 1951.9558,-252 1951.9558,-216 2064.0442,-216 2064.0442,-252"/>
<text text-anchor="middle" x="2008" y="-229.8" font-family="Times,serif" font-size="14.00" fill="#000000">CardComponent </text>
</g>
<!-- SharedModule&#45;&gt;CardComponent  -->
<g id="edge14" class="edge">
<title>SharedModule&#45;&gt;CardComponent </title>
<path fill="none" stroke="#000000" stroke-dasharray="5,2" d="M1113.51,-171C1306.4214,-171 1997.125,-171 1997.125,-171 1997.125,-171 1997.125,-205.7778 1997.125,-205.7778"/>
<polygon fill="#000000" stroke="#000000" points="1993.6251,-205.7778 1997.125,-215.7778 2000.6251,-205.7778 1993.6251,-205.7778"/>
</g>
<!-- DatepickerComponent  -->
<g id="node16" class="node">
<title>DatepickerComponent </title>
<polygon fill="#fb8072" stroke="#000000" points="1934.2394,-252 1787.7606,-252 1787.7606,-216 1934.2394,-216 1934.2394,-252"/>
<text text-anchor="middle" x="1861" y="-229.8" font-family="Times,serif" font-size="14.00" fill="#000000">DatepickerComponent </text>
</g>
<!-- SharedModule&#45;&gt;DatepickerComponent  -->
<g id="edge15" class="edge">
<title>SharedModule&#45;&gt;DatepickerComponent </title>
<path fill="none" stroke="#000000" stroke-dasharray="5,2" d="M1113.2695,-174C1285.6998,-174 1851.625,-174 1851.625,-174 1851.625,-174 1851.625,-205.998 1851.625,-205.998"/>
<polygon fill="#000000" stroke="#000000" points="1848.1251,-205.998 1851.625,-215.998 1855.1251,-205.9981 1848.1251,-205.998"/>
</g>
<!-- DropdownComponent  -->
<g id="node17" class="node">
<title>DropdownComponent </title>
<polygon fill="#fb8072" stroke="#000000" points="1770.2065,-252 1625.7935,-252 1625.7935,-216 1770.2065,-216 1770.2065,-252"/>
<text text-anchor="middle" x="1698" y="-229.8" font-family="Times,serif" font-size="14.00" fill="#000000">DropdownComponent </text>
</g>
<!-- SharedModule&#45;&gt;DropdownComponent  -->
<g id="edge16" class="edge">
<title>SharedModule&#45;&gt;DropdownComponent </title>
<path fill="none" stroke="#000000" stroke-dasharray="5,2" d="M1113.3924,-176C1261.2403,-176 1690.125,-176 1690.125,-176 1690.125,-176 1690.125,-205.9664 1690.125,-205.9664"/>
<polygon fill="#000000" stroke="#000000" points="1686.6251,-205.9663 1690.125,-215.9664 1693.6251,-205.9664 1686.6251,-205.9663"/>
</g>
<!-- EventIntensityPipe  -->
<g id="node18" class="node">
<title>EventIntensityPipe </title>
<polygon fill="#fb8072" stroke="#000000" points="1608.0372,-252 1481.9628,-252 1481.9628,-216 1608.0372,-216 1608.0372,-252"/>
<text text-anchor="middle" x="1545" y="-229.8" font-family="Times,serif" font-size="14.00" fill="#000000">EventIntensityPipe </text>
</g>
<!-- SharedModule&#45;&gt;EventIntensityPipe  -->
<g id="edge17" class="edge">
<title>SharedModule&#45;&gt;EventIntensityPipe </title>
<path fill="none" stroke="#000000" stroke-dasharray="5,2" d="M1113.45,-179C1235.0133,-179 1538.625,-179 1538.625,-179 1538.625,-179 1538.625,-205.9909 1538.625,-205.9909"/>
<polygon fill="#000000" stroke="#000000" points="1535.1251,-205.9909 1538.625,-215.9909 1542.1251,-205.991 1535.1251,-205.9909"/>
</g>
<!-- EventStatusPipe  -->
<g id="node19" class="node">
<title>EventStatusPipe </title>
<polygon fill="#fb8072" stroke="#000000" points="1463.7689,-252 1352.2311,-252 1352.2311,-216 1463.7689,-216 1463.7689,-252"/>
<text text-anchor="middle" x="1408" y="-229.8" font-family="Times,serif" font-size="14.00" fill="#000000">EventStatusPipe </text>
</g>
<!-- SharedModule&#45;&gt;EventStatusPipe  -->
<g id="edge18" class="edge">
<title>SharedModule&#45;&gt;EventStatusPipe </title>
<path fill="none" stroke="#000000" stroke-dasharray="5,2" d="M1113.3378,-182C1203.6904,-182 1386.5386,-182 1386.5386,-182 1386.5386,-182 1386.5386,-205.8129 1386.5386,-205.8129"/>
<polygon fill="#000000" stroke="#000000" points="1383.0387,-205.8129 1386.5386,-215.8129 1390.0387,-205.813 1383.0387,-205.8129"/>
</g>
<!-- GoogleMapDirective  -->
<g id="node20" class="node">
<title>GoogleMapDirective </title>
<polygon fill="#fb8072" stroke="#000000" points="1334.4545,-252 1195.5455,-252 1195.5455,-216 1334.4545,-216 1334.4545,-252"/>
<text text-anchor="middle" x="1265" y="-229.8" font-family="Times,serif" font-size="14.00" fill="#000000">GoogleMapDirective </text>
</g>
<!-- SharedModule&#45;&gt;GoogleMapDirective  -->
<g id="edge19" class="edge">
<title>SharedModule&#45;&gt;GoogleMapDirective </title>
<path fill="none" stroke="#000000" stroke-dasharray="5,2" d="M1113.5901,-185C1165.7474,-185 1240.341,-185 1240.341,-185 1240.341,-185 1240.341,-205.7542 1240.341,-205.7542"/>
<polygon fill="#000000" stroke="#000000" points="1236.8411,-205.7542 1240.341,-215.7542 1243.8411,-205.7542 1236.8411,-205.7542"/>
</g>
<!-- GooglePlacesAutocompleteDirective  -->
<g id="node21" class="node">
<title>GooglePlacesAutocompleteDirective </title>
<polygon fill="#fb8072" stroke="#000000" points="1177.869,-252 950.131,-252 950.131,-216 1177.869,-216 1177.869,-252"/>
<text text-anchor="middle" x="1064" y="-229.8" font-family="Times,serif" font-size="14.00" fill="#000000">GooglePlacesAutocompleteDirective </text>
</g>
<!-- SharedModule&#45;&gt;GooglePlacesAutocompleteDirective  -->
<g id="edge20" class="edge">
<title>SharedModule&#45;&gt;GooglePlacesAutocompleteDirective </title>
<path fill="none" stroke="#000000" stroke-dasharray="5,2" d="M1064,-187.1061C1064,-187.1061 1064,-205.991 1064,-205.991"/>
<polygon fill="#000000" stroke="#000000" points="1060.5001,-205.9909 1064,-215.991 1067.5001,-205.991 1060.5001,-205.9909"/>
</g>
<!-- JumbotronComponent  -->
<g id="node22" class="node">
<title>JumbotronComponent </title>
<polygon fill="#fb8072" stroke="#000000" points="932.2191,-252 787.7809,-252 787.7809,-216 932.2191,-216 932.2191,-252"/>
<text text-anchor="middle" x="860" y="-229.8" font-family="Times,serif" font-size="14.00" fill="#000000">JumbotronComponent </text>
</g>
<!-- SharedModule&#45;&gt;JumbotronComponent  -->
<g id="edge21" class="edge">
<title>SharedModule&#45;&gt;JumbotronComponent </title>
<path fill="none" stroke="#000000" stroke-dasharray="5,2" d="M1014.6331,-185C948.4144,-185 839.0469,-185 839.0469,-185 839.0469,-185 839.0469,-205.7542 839.0469,-205.7542"/>
<polygon fill="#000000" stroke="#000000" points="835.547,-205.7542 839.0469,-215.7542 842.547,-205.7542 835.547,-205.7542"/>
</g>
<!-- ModalComponent  -->
<g id="node23" class="node">
<title>ModalComponent </title>
<polygon fill="#fb8072" stroke="#000000" points="769.8828,-252 648.1172,-252 648.1172,-216 769.8828,-216 769.8828,-252"/>
<text text-anchor="middle" x="709" y="-229.8" font-family="Times,serif" font-size="14.00" fill="#000000">ModalComponent </text>
</g>
<!-- SharedModule&#45;&gt;ModalComponent  -->
<g id="edge22" class="edge">
<title>SharedModule&#45;&gt;ModalComponent </title>
<path fill="none" stroke="#000000" stroke-dasharray="5,2" d="M1014.4756,-182C913.6366,-182 693.9363,-182 693.9363,-182 693.9363,-182 693.9363,-205.8129 693.9363,-205.8129"/>
<polygon fill="#000000" stroke="#000000" points="690.4364,-205.8129 693.9363,-215.8129 697.4364,-205.813 690.4364,-205.8129"/>
</g>
<!-- NotificationTypePipe  -->
<g id="node24" class="node">
<title>NotificationTypePipe </title>
<polygon fill="#fb8072" stroke="#000000" points="630.3045,-252 489.6955,-252 489.6955,-216 630.3045,-216 630.3045,-252"/>
<text text-anchor="middle" x="560" y="-229.8" font-family="Times,serif" font-size="14.00" fill="#000000">NotificationTypePipe </text>
</g>
<!-- SharedModule&#45;&gt;NotificationTypePipe  -->
<g id="edge23" class="edge">
<title>SharedModule&#45;&gt;NotificationTypePipe </title>
<path fill="none" stroke="#000000" stroke-dasharray="5,2" d="M1014.367,-179C888.2456,-179 565.375,-179 565.375,-179 565.375,-179 565.375,-205.9909 565.375,-205.9909"/>
<polygon fill="#000000" stroke="#000000" points="561.8751,-205.9909 565.375,-215.9909 568.8751,-205.991 561.8751,-205.9909"/>
</g>
<!-- OutsideClickDirective  -->
<g id="node25" class="node">
<title>OutsideClickDirective </title>
<polygon fill="#fb8072" stroke="#000000" points="471.9629,-252 326.0371,-252 326.0371,-216 471.9629,-216 471.9629,-252"/>
<text text-anchor="middle" x="399" y="-229.8" font-family="Times,serif" font-size="14.00" fill="#000000">OutsideClickDirective </text>
</g>
<!-- SharedModule&#45;&gt;OutsideClickDirective  -->
<g id="edge24" class="edge">
<title>SharedModule&#45;&gt;OutsideClickDirective </title>
<path fill="none" stroke="#000000" stroke-dasharray="5,2" d="M1014.5337,-176C861.4791,-176 405.875,-176 405.875,-176 405.875,-176 405.875,-205.9664 405.875,-205.9664"/>
<polygon fill="#000000" stroke="#000000" points="402.3751,-205.9663 405.875,-215.9664 409.3751,-205.9664 402.3751,-205.9663"/>
</g>
<!-- PaddingZeroPipe  -->
<g id="node26" class="node">
<title>PaddingZeroPipe </title>
<polygon fill="#fb8072" stroke="#000000" points="308.2038,-252 191.7962,-252 191.7962,-216 308.2038,-216 308.2038,-252"/>
<text text-anchor="middle" x="250" y="-229.8" font-family="Times,serif" font-size="14.00" fill="#000000">PaddingZeroPipe </text>
</g>
<!-- SharedModule&#45;&gt;PaddingZeroPipe  -->
<g id="edge25" class="edge">
<title>SharedModule&#45;&gt;PaddingZeroPipe </title>
<path fill="none" stroke="#000000" stroke-dasharray="5,2" d="M1014.5153,-174C839.236,-174 258.375,-174 258.375,-174 258.375,-174 258.375,-205.998 258.375,-205.998"/>
<polygon fill="#000000" stroke="#000000" points="254.8751,-205.998 258.375,-215.998 261.8751,-205.9981 254.8751,-205.998"/>
</g>
<!-- TimepickerComponent  -->
<g id="node27" class="node">
<title>TimepickerComponent </title>
<polygon fill="#fb8072" stroke="#000000" points="173.8616,-252 24.1384,-252 24.1384,-216 173.8616,-216 173.8616,-252"/>
<text text-anchor="middle" x="99" y="-229.8" font-family="Times,serif" font-size="14.00" fill="#000000">TimepickerComponent </text>
</g>
<!-- SharedModule&#45;&gt;TimepickerComponent  -->
<g id="edge26" class="edge">
<title>SharedModule&#45;&gt;TimepickerComponent </title>
<path fill="none" stroke="#000000" stroke-dasharray="5,2" d="M1014.6596,-171C819.0767,-171 108.875,-171 108.875,-171 108.875,-171 108.875,-205.7778 108.875,-205.7778"/>
<polygon fill="#000000" stroke="#000000" points="105.3751,-205.7778 108.875,-215.7778 112.3751,-205.7778 105.3751,-205.7778"/>
</g>
</g>
</svg>
