<?xml version="1.0" encoding="UTF-8" standalone="no"?>
<!DOCTYPE svg PUBLIC "-//W3C//DTD SVG 1.1//EN"
 "http://www.w3.org/Graphics/SVG/1.1/DTD/svg11.dtd">
<!-- Generated by graphviz version 2.40.1 (20161225.0304)
 -->
<!-- Title: dependencies Pages: 1 -->
<svg width="2596pt" height="211pt"
 viewBox="0.00 0.00 2596.00 211.00" xmlns="http://www.w3.org/2000/svg" xmlns:xlink="http://www.w3.org/1999/xlink">
<g id="graph0" class="graph" transform="scale(1 1) rotate(0) translate(4 207)">
<title>dependencies</title>
<polygon fill="#ffffff" stroke="transparent" points="-4,4 -4,-207 2592,-207 2592,4 -4,4"/>
<text text-anchor="start" x="1273.0091" y="-42.4" font-family="sans-serif" font-weight="bold" font-size="14.00" fill="#000000">Legend</text>
<polygon fill="#ffffb3" stroke="transparent" points="1060,-10 1060,-30 1080,-30 1080,-10 1060,-10"/>
<text text-anchor="start" x="1083.629" y="-15.4" font-family="sans-serif" font-size="14.00" fill="#000000"> &#160;Declarations</text>
<polygon fill="#8dd3c7" stroke="transparent" points="1173,-10 1173,-30 1193,-30 1193,-10 1173,-10"/>
<text text-anchor="start" x="1196.7251" y="-15.4" font-family="sans-serif" font-size="14.00" fill="#000000"> &#160;Module</text>
<polygon fill="#80b1d3" stroke="transparent" points="1259,-10 1259,-30 1279,-30 1279,-10 1259,-10"/>
<text text-anchor="start" x="1282.7812" y="-15.4" font-family="sans-serif" font-size="14.00" fill="#000000"> &#160;Bootstrap</text>
<polygon fill="#fdb462" stroke="transparent" points="1356,-10 1356,-30 1376,-30 1376,-10 1356,-10"/>
<text text-anchor="start" x="1379.6732" y="-15.4" font-family="sans-serif" font-size="14.00" fill="#000000"> &#160;Providers</text>
<polygon fill="#fb8072" stroke="transparent" points="1452,-10 1452,-30 1472,-30 1472,-10 1452,-10"/>
<text text-anchor="start" x="1475.7258" y="-15.4" font-family="sans-serif" font-size="14.00" fill="#000000"> &#160;Exports</text>
<g id="clust1" class="cluster">
<title>cluster_UsersModule</title>
<polygon fill="none" stroke="#000000" stroke-dasharray="1,5" points="8,-70 8,-195 2580,-195 2580,-70 8,-70"/>
</g>
<g id="clust2" class="cluster">
<title>cluster_UsersModule_declarations</title>
<polygon fill="none" stroke="#000000" points="408,-78 408,-130 2572,-130 2572,-78 408,-78"/>
</g>
<g id="clust13" class="cluster">
<title>cluster_UsersModule_imports</title>
<polygon fill="none" stroke="#000000" points="16,-78 16,-130 400,-130 400,-78 16,-78"/>
</g>
<!-- UserProfileComponent -->
<g id="node1" class="node">
<title>UserProfileComponent</title>
<polygon fill="#ffffb3" stroke="#000000" points="2563.8585,-122 2418.1415,-122 2418.1415,-86 2563.8585,-86 2563.8585,-122"/>
<text text-anchor="middle" x="2491" y="-99.8" font-family="Times,serif" font-size="14.00" fill="#000000">UserProfileComponent</text>
</g>
<!-- UsersModule -->
<g id="node11" class="node">
<title>UsersModule</title>
<polygon fill="#8dd3c7" stroke="#000000" points="1272.9218,-187 1269.9218,-191 1248.9218,-191 1245.9218,-187 1181.0782,-187 1181.0782,-151 1272.9218,-151 1272.9218,-187"/>
<text text-anchor="middle" x="1227" y="-164.8" font-family="Times,serif" font-size="14.00" fill="#000000">UsersModule</text>
</g>
<!-- UserProfileComponent&#45;&gt;UsersModule -->
<g id="edge1" class="edge">
<title>UserProfileComponent&#45;&gt;UsersModule</title>
<path fill="none" stroke="#000000" d="M2491,-122.0908C2491,-145.1328 2491,-182 2491,-182 2491,-182 1282.7332,-182 1282.7332,-182"/>
<polygon fill="#000000" stroke="#000000" points="1282.7332,-178.5001 1272.7332,-182 1282.7331,-185.5001 1282.7332,-178.5001"/>
</g>
<!-- UserProfileEditComponent -->
<g id="node2" class="node">
<title>UserProfileEditComponent</title>
<polygon fill="#ffffb3" stroke="#000000" points="2399.6923,-122 2230.3077,-122 2230.3077,-86 2399.6923,-86 2399.6923,-122"/>
<text text-anchor="middle" x="2315" y="-99.8" font-family="Times,serif" font-size="14.00" fill="#000000">UserProfileEditComponent</text>
</g>
<!-- UserProfileEditComponent&#45;&gt;UsersModule -->
<g id="edge2" class="edge">
<title>UserProfileEditComponent&#45;&gt;UsersModule</title>
<path fill="none" stroke="#000000" d="M2315,-122.0449C2315,-143.6623 2315,-177 2315,-177 2315,-177 1283.0551,-177 1283.0551,-177"/>
<polygon fill="#000000" stroke="#000000" points="1283.0551,-173.5001 1273.0551,-177 1283.055,-180.5001 1283.0551,-173.5001"/>
</g>
<!-- UserProfileEditProfileComponent -->
<g id="node3" class="node">
<title>UserProfileEditProfileComponent</title>
<polygon fill="#ffffb3" stroke="#000000" points="2212.792,-122 2005.208,-122 2005.208,-86 2212.792,-86 2212.792,-122"/>
<text text-anchor="middle" x="2109" y="-99.8" font-family="Times,serif" font-size="14.00" fill="#000000">UserProfileEditProfileComponent</text>
</g>
<!-- UserProfileEditProfileComponent&#45;&gt;UsersModule -->
<g id="edge3" class="edge">
<title>UserProfileEditProfileComponent&#45;&gt;UsersModule</title>
<path fill="none" stroke="#000000" d="M2109,-122.2228C2109,-142.3652 2109,-172 2109,-172 2109,-172 1282.8701,-172 1282.8701,-172"/>
<polygon fill="#000000" stroke="#000000" points="1282.8702,-168.5001 1272.8701,-172 1282.8701,-175.5001 1282.8702,-168.5001"/>
</g>
<!-- UserProfileEditSecurityComponent -->
<g id="node4" class="node">
<title>UserProfileEditSecurityComponent</title>
<polygon fill="#ffffb3" stroke="#000000" points="1986.8459,-122 1771.1541,-122 1771.1541,-86 1986.8459,-86 1986.8459,-122"/>
<text text-anchor="middle" x="1879" y="-99.8" font-family="Times,serif" font-size="14.00" fill="#000000">UserProfileEditSecurityComponent</text>
</g>
<!-- UserProfileEditSecurityComponent&#45;&gt;UsersModule -->
<g id="edge4" class="edge">
<title>UserProfileEditSecurityComponent&#45;&gt;UsersModule</title>
<path fill="none" stroke="#000000" d="M1879,-122.2222C1879,-140.8285 1879,-167 1879,-167 1879,-167 1282.8474,-167 1282.8474,-167"/>
<polygon fill="#000000" stroke="#000000" points="1282.8474,-163.5001 1272.8474,-167 1282.8473,-170.5001 1282.8474,-163.5001"/>
</g>
<!-- UserProfileEventsHistoryComponent -->
<g id="node5" class="node">
<title>UserProfileEventsHistoryComponent</title>
<polygon fill="#ffffb3" stroke="#000000" points="1752.9538,-122 1527.0462,-122 1527.0462,-86 1752.9538,-86 1752.9538,-122"/>
<text text-anchor="middle" x="1640" y="-99.8" font-family="Times,serif" font-size="14.00" fill="#000000">UserProfileEventsHistoryComponent</text>
</g>
<!-- UserProfileEventsHistoryComponent&#45;&gt;UsersModule -->
<g id="edge5" class="edge">
<title>UserProfileEventsHistoryComponent&#45;&gt;UsersModule</title>
<path fill="none" stroke="#000000" d="M1640,-122.0336C1640,-139.0597 1640,-162 1640,-162 1640,-162 1282.7762,-162 1282.7762,-162"/>
<polygon fill="#000000" stroke="#000000" points="1282.7763,-158.5001 1272.7762,-162 1282.7762,-165.5001 1282.7763,-158.5001"/>
</g>
<!-- UserProfileInfoComponent -->
<g id="node6" class="node">
<title>UserProfileInfoComponent</title>
<polygon fill="#ffffb3" stroke="#000000" points="1508.6797,-122 1339.3203,-122 1339.3203,-86 1508.6797,-86 1508.6797,-122"/>
<text text-anchor="middle" x="1424" y="-99.8" font-family="Times,serif" font-size="14.00" fill="#000000">UserProfileInfoComponent</text>
</g>
<!-- UserProfileInfoComponent&#45;&gt;UsersModule -->
<g id="edge6" class="edge">
<title>UserProfileInfoComponent&#45;&gt;UsersModule</title>
<path fill="none" stroke="#000000" d="M1424,-122.2396C1424,-137.5706 1424,-157 1424,-157 1424,-157 1283.1877,-157 1283.1877,-157"/>
<polygon fill="#000000" stroke="#000000" points="1283.1878,-153.5001 1273.1877,-157 1283.1877,-160.5001 1283.1878,-153.5001"/>
</g>
<!-- UserProfileRatingsComponent -->
<g id="node7" class="node">
<title>UserProfileRatingsComponent</title>
<polygon fill="#ffffb3" stroke="#000000" points="1321.1358,-122 1132.8642,-122 1132.8642,-86 1321.1358,-86 1321.1358,-122"/>
<text text-anchor="middle" x="1227" y="-99.8" font-family="Times,serif" font-size="14.00" fill="#000000">UserProfileRatingsComponent</text>
</g>
<!-- UserProfileRatingsComponent&#45;&gt;UsersModule -->
<g id="edge7" class="edge">
<title>UserProfileRatingsComponent&#45;&gt;UsersModule</title>
<path fill="none" stroke="#000000" d="M1227,-122.1061C1227,-122.1061 1227,-140.991 1227,-140.991"/>
<polygon fill="#000000" stroke="#000000" points="1223.5001,-140.9909 1227,-150.991 1230.5001,-140.991 1223.5001,-140.9909"/>
</g>
<!-- UserProfileRatingsListComponent -->
<g id="node8" class="node">
<title>UserProfileRatingsListComponent</title>
<polygon fill="#ffffb3" stroke="#000000" points="1114.4142,-122 903.5858,-122 903.5858,-86 1114.4142,-86 1114.4142,-122"/>
<text text-anchor="middle" x="1009" y="-99.8" font-family="Times,serif" font-size="14.00" fill="#000000">UserProfileRatingsListComponent</text>
</g>
<!-- UserProfileRatingsListComponent&#45;&gt;UsersModule -->
<g id="edge8" class="edge">
<title>UserProfileRatingsListComponent&#45;&gt;UsersModule</title>
<path fill="none" stroke="#000000" d="M1009,-122.2396C1009,-137.5706 1009,-157 1009,-157 1009,-157 1171.0342,-157 1171.0342,-157"/>
<polygon fill="#000000" stroke="#000000" points="1171.0342,-160.5001 1181.0342,-157 1171.0342,-153.5001 1171.0342,-160.5001"/>
</g>
<!-- UserProfileRatingsListItemComponent -->
<g id="node9" class="node">
<title>UserProfileRatingsListItemComponent</title>
<polygon fill="#ffffb3" stroke="#000000" points="886.0702,-122 649.9298,-122 649.9298,-86 886.0702,-86 886.0702,-122"/>
<text text-anchor="middle" x="768" y="-99.8" font-family="Times,serif" font-size="14.00" fill="#000000">UserProfileRatingsListItemComponent</text>
</g>
<!-- UserProfileRatingsListItemComponent&#45;&gt;UsersModule -->
<g id="edge9" class="edge">
<title>UserProfileRatingsListItemComponent&#45;&gt;UsersModule</title>
<path fill="none" stroke="#000000" d="M768,-122.0336C768,-139.0597 768,-162 768,-162 768,-162 1170.8878,-162 1170.8878,-162"/>
<polygon fill="#000000" stroke="#000000" points="1170.8878,-165.5001 1180.8878,-162 1170.8877,-158.5001 1170.8878,-165.5001"/>
</g>
<!-- UserProfileRatingsNewComponent -->
<g id="node10" class="node">
<title>UserProfileRatingsNewComponent</title>
<polygon fill="#ffffb3" stroke="#000000" points="631.5632,-122 416.4368,-122 416.4368,-86 631.5632,-86 631.5632,-122"/>
<text text-anchor="middle" x="524" y="-99.8" font-family="Times,serif" font-size="14.00" fill="#000000">UserProfileRatingsNewComponent</text>
</g>
<!-- UserProfileRatingsNewComponent&#45;&gt;UsersModule -->
<g id="edge10" class="edge">
<title>UserProfileRatingsNewComponent&#45;&gt;UsersModule</title>
<path fill="none" stroke="#000000" d="M524,-122.2222C524,-140.8285 524,-167 524,-167 524,-167 1171.1454,-167 1171.1454,-167"/>
<polygon fill="#000000" stroke="#000000" points="1171.1454,-170.5001 1181.1454,-167 1171.1454,-163.5001 1171.1454,-170.5001"/>
</g>
<!-- EventsModule -->
<g id="node12" class="node">
<title>EventsModule</title>
<polygon fill="#8dd3c7" stroke="#000000" points="391.6528,-122 388.6528,-126 367.6528,-126 364.6528,-122 294.3472,-122 294.3472,-86 391.6528,-86 391.6528,-122"/>
<text text-anchor="middle" x="343" y="-99.8" font-family="Times,serif" font-size="14.00" fill="#000000">EventsModule</text>
</g>
<!-- EventsModule&#45;&gt;UsersModule -->
<g id="edge11" class="edge">
<title>EventsModule&#45;&gt;UsersModule</title>
<path fill="none" stroke="#000000" d="M343,-122.2228C343,-142.3652 343,-172 343,-172 343,-172 1171.0258,-172 1171.0258,-172"/>
<polygon fill="#000000" stroke="#000000" points="1171.0259,-175.5001 1181.0258,-172 1171.0258,-168.5001 1171.0259,-175.5001"/>
</g>
<!-- SharedModule -->
<g id="node13" class="node">
<title>SharedModule</title>
<polygon fill="#8dd3c7" stroke="#000000" points="276.4231,-122 273.4231,-126 252.4231,-126 249.4231,-122 177.5769,-122 177.5769,-86 276.4231,-86 276.4231,-122"/>
<text text-anchor="middle" x="227" y="-99.8" font-family="Times,serif" font-size="14.00" fill="#000000">SharedModule</text>
</g>
<!-- SharedModule&#45;&gt;UsersModule -->
<g id="edge12" class="edge">
<title>SharedModule&#45;&gt;UsersModule</title>
<path fill="none" stroke="#000000" d="M227,-122.0449C227,-143.6623 227,-177 227,-177 227,-177 1171.1041,-177 1171.1041,-177"/>
<polygon fill="#000000" stroke="#000000" points="1171.1041,-180.5001 1181.1041,-177 1171.104,-173.5001 1171.1041,-180.5001"/>
</g>
<!-- UsersRoutingModule -->
<g id="node14" class="node">
<title>UsersRoutingModule</title>
<polygon fill="#8dd3c7" stroke="#000000" points="160.0394,-122 157.0394,-126 136.0394,-126 133.0394,-122 23.9606,-122 23.9606,-86 160.0394,-86 160.0394,-122"/>
<text text-anchor="middle" x="92" y="-99.8" font-family="Times,serif" font-size="14.00" fill="#000000">UsersRoutingModule</text>
</g>
<!-- UsersRoutingModule&#45;&gt;UsersModule -->
<g id="edge13" class="edge">
<title>UsersRoutingModule&#45;&gt;UsersModule</title>
<path fill="none" stroke="#000000" d="M92,-122.0908C92,-145.1328 92,-182 92,-182 92,-182 1171.1009,-182 1171.1009,-182"/>
<polygon fill="#000000" stroke="#000000" points="1171.1009,-185.5001 1181.1009,-182 1171.1009,-178.5001 1171.1009,-185.5001"/>
</g>
</g>
</svg>
