<?xml version="1.0" encoding="UTF-8" standalone="no"?>
<!DOCTYPE svg PUBLIC "-//W3C//DTD SVG 1.1//EN"
 "http://www.w3.org/Graphics/SVG/1.1/DTD/svg11.dtd">
<!-- Generated by graphviz version 2.40.1 (20161225.0304)
 -->
<!-- Title: dependencies Pages: 1 -->
<svg width="1036pt" height="284pt"
 viewBox="0.00 0.00 1036.00 284.00" xmlns="http://www.w3.org/2000/svg" xmlns:xlink="http://www.w3.org/1999/xlink">
<g id="graph0" class="graph" transform="scale(1 1) rotate(0) translate(4 280)">
<title>dependencies</title>
<polygon fill="#ffffff" stroke="transparent" points="-4,4 -4,-280 1032,-280 1032,4 -4,4"/>
<text text-anchor="start" x="493.0091" y="-42.4" font-family="sans-serif" font-weight="bold" font-size="14.00" fill="#000000">Legend</text>
<polygon fill="#ffffb3" stroke="transparent" points="280,-10 280,-30 300,-30 300,-10 280,-10"/>
<text text-anchor="start" x="303.629" y="-15.4" font-family="sans-serif" font-size="14.00" fill="#000000"> &#160;Declarations</text>
<polygon fill="#8dd3c7" stroke="transparent" points="393,-10 393,-30 413,-30 413,-10 393,-10"/>
<text text-anchor="start" x="416.7251" y="-15.4" font-family="sans-serif" font-size="14.00" fill="#000000"> &#160;Module</text>
<polygon fill="#80b1d3" stroke="transparent" points="479,-10 479,-30 499,-30 499,-10 479,-10"/>
<text text-anchor="start" x="502.7812" y="-15.4" font-family="sans-serif" font-size="14.00" fill="#000000"> &#160;Bootstrap</text>
<polygon fill="#fdb462" stroke="transparent" points="576,-10 576,-30 596,-30 596,-10 576,-10"/>
<text text-anchor="start" x="599.6732" y="-15.4" font-family="sans-serif" font-size="14.00" fill="#000000"> &#160;Providers</text>
<polygon fill="#fb8072" stroke="transparent" points="672,-10 672,-30 692,-30 692,-10 672,-10"/>
<text text-anchor="start" x="695.7258" y="-15.4" font-family="sans-serif" font-size="14.00" fill="#000000"> &#160;Exports</text>
<g id="clust1" class="cluster">
<title>cluster_AppModule</title>
<polygon fill="none" stroke="#000000" stroke-dasharray="1,5" points="8,-70 8,-268 1020,-268 1020,-70 8,-70"/>
</g>
<g id="clust2" class="cluster">
<title>cluster_AppModule_declarations</title>
<polygon fill="none" stroke="#000000" points="890,-78 890,-130 1012,-130 1012,-78 890,-78"/>
</g>
<g id="clust4" class="cluster">
<title>cluster_AppModule_imports</title>
<polygon fill="none" stroke="#000000" points="521,-78 521,-130 882,-130 882,-78 521,-78"/>
</g>
<g id="clust6" class="cluster">
<title>cluster_AppModule_bootstrap</title>
<polygon fill="none" stroke="#000000" points="514,-208 514,-260 638,-260 638,-208 514,-208"/>
</g>
<g id="clust7" class="cluster">
<title>cluster_AppModule_providers</title>
<polygon fill="none" stroke="#000000" points="16,-78 16,-130 513,-130 513,-78 16,-78"/>
</g>
<!-- AppComponent -->
<g id="node1" class="node">
<title>AppComponent</title>
<polygon fill="#ffffb3" stroke="#000000" points="1003.9399,-122 898.0601,-122 898.0601,-86 1003.9399,-86 1003.9399,-122"/>
<text text-anchor="middle" x="951" y="-99.8" font-family="Times,serif" font-size="14.00" fill="#000000">AppComponent</text>
</g>
<!-- AppModule -->
<g id="node2" class="node">
<title>AppModule</title>
<polygon fill="#8dd3c7" stroke="#000000" points="617.6571,-187 614.6571,-191 593.6571,-191 590.6571,-187 534.3429,-187 534.3429,-151 617.6571,-151 617.6571,-187"/>
<text text-anchor="middle" x="576" y="-164.8" font-family="Times,serif" font-size="14.00" fill="#000000">AppModule</text>
</g>
<!-- AppComponent&#45;&gt;AppModule -->
<g id="edge1" class="edge">
<title>AppComponent&#45;&gt;AppModule</title>
<path fill="none" stroke="#000000" d="M951,-122.2921C951,-144.2057 951,-178 951,-178 951,-178 627.9257,-178 627.9257,-178"/>
<polygon fill="#000000" stroke="#000000" points="627.9257,-174.5001 617.9257,-178 627.9257,-181.5001 627.9257,-174.5001"/>
</g>
<!-- AppComponent  -->
<g id="node6" class="node">
<title>AppComponent </title>
<polygon fill="#80b1d3" stroke="#000000" points="630.439,-252 521.561,-252 521.561,-216 630.439,-216 630.439,-252"/>
<text text-anchor="middle" x="576" y="-229.8" font-family="Times,serif" font-size="14.00" fill="#000000">AppComponent </text>
</g>
<!-- AppModule&#45;&gt;AppComponent  -->
<g id="edge5" class="edge">
<title>AppModule&#45;&gt;AppComponent </title>
<path fill="none" stroke="#000000" stroke-dasharray="1,5" d="M576,-187.1061C576,-187.1061 576,-205.991 576,-205.991"/>
<polygon fill="#000000" stroke="#000000" points="572.5001,-205.9909 576,-215.991 579.5001,-205.991 572.5001,-205.9909"/>
</g>
<!-- AppRoutingModule -->
<g id="node3" class="node">
<title>AppRoutingModule</title>
<polygon fill="#8dd3c7" stroke="#000000" points="874.2744,-122 871.2744,-126 850.2744,-126 847.2744,-122 745.7256,-122 745.7256,-86 874.2744,-86 874.2744,-122"/>
<text text-anchor="middle" x="810" y="-99.8" font-family="Times,serif" font-size="14.00" fill="#000000">AppRoutingModule</text>
</g>
<!-- AppRoutingModule&#45;&gt;AppModule -->
<g id="edge2" class="edge">
<title>AppRoutingModule&#45;&gt;AppModule</title>
<path fill="none" stroke="#000000" d="M810,-122.1061C810,-141.3391 810,-169 810,-169 810,-169 627.8345,-169 627.8345,-169"/>
<polygon fill="#000000" stroke="#000000" points="627.8345,-165.5001 617.8345,-169 627.8345,-172.5001 627.8345,-165.5001"/>
</g>
<!-- CoreModule -->
<g id="node4" class="node">
<title>CoreModule</title>
<polygon fill="#8dd3c7" stroke="#000000" points="727.2619,-122 724.2619,-126 703.2619,-126 700.2619,-122 640.7381,-122 640.7381,-86 727.2619,-86 727.2619,-122"/>
<text text-anchor="middle" x="684" y="-99.8" font-family="Times,serif" font-size="14.00" fill="#000000">CoreModule</text>
</g>
<!-- CoreModule&#45;&gt;AppModule -->
<g id="edge3" class="edge">
<title>CoreModule&#45;&gt;AppModule</title>
<path fill="none" stroke="#000000" d="M684,-122.027C684,-138.3976 684,-160 684,-160 684,-160 627.7556,-160 627.7556,-160"/>
<polygon fill="#000000" stroke="#000000" points="627.7557,-156.5001 617.7556,-160 627.7556,-163.5001 627.7557,-156.5001"/>
</g>
<!-- HomeModule -->
<g id="node5" class="node">
<title>HomeModule</title>
<polygon fill="#8dd3c7" stroke="#000000" points="622.7619,-122 619.7619,-126 598.7619,-126 595.7619,-122 529.2381,-122 529.2381,-86 622.7619,-86 622.7619,-122"/>
<text text-anchor="middle" x="576" y="-99.8" font-family="Times,serif" font-size="14.00" fill="#000000">HomeModule</text>
</g>
<!-- HomeModule&#45;&gt;AppModule -->
<g id="edge4" class="edge">
<title>HomeModule&#45;&gt;AppModule</title>
<path fill="none" stroke="#000000" d="M576,-122.1061C576,-122.1061 576,-140.991 576,-140.991"/>
<polygon fill="#000000" stroke="#000000" points="572.5001,-140.9909 576,-150.991 579.5001,-140.991 572.5001,-140.9909"/>
</g>
<!-- AuthInterceptor -->
<g id="node7" class="node">
<title>AuthInterceptor</title>
<ellipse fill="#fdb462" stroke="#000000" cx="432" cy="-104" rx="72.9121" ry="18"/>
<text text-anchor="middle" x="432" y="-99.8" font-family="Times,serif" font-size="14.00" fill="#000000">AuthInterceptor</text>
</g>
<!-- AuthInterceptor&#45;&gt;AppModule -->
<g id="edge6" class="edge">
<title>AuthInterceptor&#45;&gt;AppModule</title>
<path fill="none" stroke="#000000" d="M432,-122.027C432,-138.3976 432,-160 432,-160 432,-160 523.9621,-160 523.9621,-160"/>
<polygon fill="#000000" stroke="#000000" points="523.9622,-163.5001 533.9621,-160 523.9621,-156.5001 523.9622,-163.5001"/>
</g>
<!-- ErrorInterceptor -->
<g id="node8" class="node">
<title>ErrorInterceptor</title>
<ellipse fill="#fdb462" stroke="#000000" cx="268" cy="-104" rx="73.5329" ry="18"/>
<text text-anchor="middle" x="268" y="-99.8" font-family="Times,serif" font-size="14.00" fill="#000000">ErrorInterceptor</text>
</g>
<!-- ErrorInterceptor&#45;&gt;AppModule -->
<g id="edge7" class="edge">
<title>ErrorInterceptor&#45;&gt;AppModule</title>
<path fill="none" stroke="#000000" d="M268,-122.1061C268,-141.3391 268,-169 268,-169 268,-169 524.1412,-169 524.1412,-169"/>
<polygon fill="#000000" stroke="#000000" points="524.1412,-172.5001 534.1412,-169 524.1412,-165.5001 524.1412,-172.5001"/>
</g>
<!-- JSONInterceptor -->
<g id="node9" class="node">
<title>JSONInterceptor</title>
<ellipse fill="#fdb462" stroke="#000000" cx="100" cy="-104" rx="76.4208" ry="18"/>
<text text-anchor="middle" x="100" y="-99.8" font-family="Times,serif" font-size="14.00" fill="#000000">JSONInterceptor</text>
</g>
<!-- JSONInterceptor&#45;&gt;AppModule -->
<g id="edge8" class="edge">
<title>JSONInterceptor&#45;&gt;AppModule</title>
<path fill="none" stroke="#000000" d="M100,-122.2921C100,-144.2057 100,-178 100,-178 100,-178 524.1754,-178 524.1754,-178"/>
<polygon fill="#000000" stroke="#000000" points="524.1754,-181.5001 534.1754,-178 524.1753,-174.5001 524.1754,-181.5001"/>
</g>
</g>
</svg>
