<?xml version="1.0" encoding="UTF-8" standalone="no"?>
<!DOCTYPE svg PUBLIC "-//W3C//DTD SVG 1.1//EN"
 "http://www.w3.org/Graphics/SVG/1.1/DTD/svg11.dtd">
<!-- Generated by graphviz version 2.40.1 (20161225.0304)
 -->
<!-- Title: dependencies Pages: 1 -->
<svg width="786pt" height="211pt"
 viewBox="0.00 0.00 786.00 211.00" xmlns="http://www.w3.org/2000/svg" xmlns:xlink="http://www.w3.org/1999/xlink">
<g id="graph0" class="graph" transform="scale(1 1) rotate(0) translate(4 207)">
<title>dependencies</title>
<polygon fill="#ffffff" stroke="transparent" points="-4,4 -4,-207 782,-207 782,4 -4,4"/>
<text text-anchor="start" x="368.0091" y="-42.4" font-family="sans-serif" font-weight="bold" font-size="14.00" fill="#000000">Legend</text>
<polygon fill="#ffffb3" stroke="transparent" points="155,-10 155,-30 175,-30 175,-10 155,-10"/>
<text text-anchor="start" x="178.629" y="-15.4" font-family="sans-serif" font-size="14.00" fill="#000000"> &#160;Declarations</text>
<polygon fill="#8dd3c7" stroke="transparent" points="268,-10 268,-30 288,-30 288,-10 268,-10"/>
<text text-anchor="start" x="291.7251" y="-15.4" font-family="sans-serif" font-size="14.00" fill="#000000"> &#160;Module</text>
<polygon fill="#80b1d3" stroke="transparent" points="354,-10 354,-30 374,-30 374,-10 354,-10"/>
<text text-anchor="start" x="377.7812" y="-15.4" font-family="sans-serif" font-size="14.00" fill="#000000"> &#160;Bootstrap</text>
<polygon fill="#fdb462" stroke="transparent" points="451,-10 451,-30 471,-30 471,-10 451,-10"/>
<text text-anchor="start" x="474.6732" y="-15.4" font-family="sans-serif" font-size="14.00" fill="#000000"> &#160;Providers</text>
<polygon fill="#fb8072" stroke="transparent" points="547,-10 547,-30 567,-30 567,-10 547,-10"/>
<text text-anchor="start" x="570.7258" y="-15.4" font-family="sans-serif" font-size="14.00" fill="#000000"> &#160;Exports</text>
<g id="clust1" class="cluster">
<title>cluster_ForgotPasswordModule</title>
<polygon fill="none" stroke="#000000" stroke-dasharray="1,5" points="8,-70 8,-195 770,-195 770,-70 8,-70"/>
</g>
<g id="clust2" class="cluster">
<title>cluster_ForgotPasswordModule_declarations</title>
<polygon fill="none" stroke="#000000" points="352,-78 352,-130 762,-130 762,-78 352,-78"/>
</g>
<g id="clust5" class="cluster">
<title>cluster_ForgotPasswordModule_imports</title>
<polygon fill="none" stroke="#000000" points="16,-78 16,-130 344,-130 344,-78 16,-78"/>
</g>
<!-- ForgotPasswordComponent -->
<g id="node1" class="node">
<title>ForgotPasswordComponent</title>
<polygon fill="#ffffb3" stroke="#000000" points="754.3201,-122 581.6799,-122 581.6799,-86 754.3201,-86 754.3201,-122"/>
<text text-anchor="middle" x="668" y="-99.8" font-family="Times,serif" font-size="14.00" fill="#000000">ForgotPasswordComponent</text>
</g>
<!-- ForgotPasswordModule -->
<g id="node3" class="node">
<title>ForgotPasswordModule</title>
<polygon fill="#8dd3c7" stroke="#000000" points="425.0379,-187 422.0379,-191 401.0379,-191 398.0379,-187 274.9621,-187 274.9621,-151 425.0379,-151 425.0379,-187"/>
<text text-anchor="middle" x="350" y="-164.8" font-family="Times,serif" font-size="14.00" fill="#000000">ForgotPasswordModule</text>
</g>
<!-- ForgotPasswordComponent&#45;&gt;ForgotPasswordModule -->
<g id="edge1" class="edge">
<title>ForgotPasswordComponent&#45;&gt;ForgotPasswordModule</title>
<path fill="none" stroke="#000000" d="M668,-122.1061C668,-141.3391 668,-169 668,-169 668,-169 435.3616,-169 435.3616,-169"/>
<polygon fill="#000000" stroke="#000000" points="435.3616,-165.5001 425.3616,-169 435.3615,-172.5001 435.3616,-165.5001"/>
</g>
<!-- ForgotPasswordResetComponent -->
<g id="node2" class="node">
<title>ForgotPasswordResetComponent</title>
<polygon fill="#ffffb3" stroke="#000000" points="563.9212,-122 360.0788,-122 360.0788,-86 563.9212,-86 563.9212,-122"/>
<text text-anchor="middle" x="462" y="-99.8" font-family="Times,serif" font-size="14.00" fill="#000000">ForgotPasswordResetComponent</text>
</g>
<!-- ForgotPasswordResetComponent&#45;&gt;ForgotPasswordModule -->
<g id="edge2" class="edge">
<title>ForgotPasswordResetComponent&#45;&gt;ForgotPasswordModule</title>
<path fill="none" stroke="#000000" d="M392.7791,-122.1061C392.7791,-122.1061 392.7791,-140.991 392.7791,-140.991"/>
<polygon fill="#000000" stroke="#000000" points="389.2792,-140.9909 392.7791,-150.991 396.2792,-140.991 389.2792,-140.9909"/>
</g>
<!-- ForgotPasswordRoutingModule -->
<g id="node4" class="node">
<title>ForgotPasswordRoutingModule</title>
<polygon fill="#8dd3c7" stroke="#000000" points="335.6553,-122 332.6553,-126 311.6553,-126 308.6553,-122 140.3447,-122 140.3447,-86 335.6553,-86 335.6553,-122"/>
<text text-anchor="middle" x="238" y="-99.8" font-family="Times,serif" font-size="14.00" fill="#000000">ForgotPasswordRoutingModule</text>
</g>
<!-- ForgotPasswordRoutingModule&#45;&gt;ForgotPasswordModule -->
<g id="edge3" class="edge">
<title>ForgotPasswordRoutingModule&#45;&gt;ForgotPasswordModule</title>
<path fill="none" stroke="#000000" d="M305.2795,-122.1061C305.2795,-122.1061 305.2795,-140.991 305.2795,-140.991"/>
<polygon fill="#000000" stroke="#000000" points="301.7795,-140.9909 305.2795,-150.991 308.7795,-140.991 301.7795,-140.9909"/>
</g>
<!-- SharedModule -->
<g id="node5" class="node">
<title>SharedModule</title>
<polygon fill="#8dd3c7" stroke="#000000" points="122.4231,-122 119.4231,-126 98.4231,-126 95.4231,-122 23.5769,-122 23.5769,-86 122.4231,-86 122.4231,-122"/>
<text text-anchor="middle" x="73" y="-99.8" font-family="Times,serif" font-size="14.00" fill="#000000">SharedModule</text>
</g>
<!-- SharedModule&#45;&gt;ForgotPasswordModule -->
<g id="edge4" class="edge">
<title>SharedModule&#45;&gt;ForgotPasswordModule</title>
<path fill="none" stroke="#000000" d="M73,-122.1061C73,-141.3391 73,-169 73,-169 73,-169 264.6744,-169 264.6744,-169"/>
<polygon fill="#000000" stroke="#000000" points="264.6745,-172.5001 274.6744,-169 264.6744,-165.5001 264.6745,-172.5001"/>
</g>
</g>
</svg>
